<svg xmlns="http://www.w3.org/2000/svg" width="24" height="24" viewBox="0 0 24 24"><path fill="#1779ba" d="M10.553 3.123A8.72 8.72 0 0 1 12 3a9 9 0 0 1 9 9c0 1.742-.5 3.363-1.359 4.738.226-.877.359-1.791.359-2.738 0-5.537-4.116-10.119-9.447-10.877zM23 12c0 .947-.133 1.861-.359 2.738A8.908 8.908 0 0 0 24 10a9 9 0 0 0-9-9 8.72 8.72 0 0 0-1.447.123C18.884 1.881 23 6.463 23 12zM9 7c3.859 0 7 3.14 7 7s-3.141 7-7 7-7-3.14-7-7 3.141-7 7-7zm0-2c-4.971 0-9 4.029-9 9s4.029 9 9 9 9-4.029 9-9-4.029-9-9-9zm3.416 10.736c0-1.787-1.86-2.285-3.286-2.955-.864-.449-.757-1.525.483-1.597.691-.042 1.396.162 2.036.387l.302-1.372a7.72 7.72 0 0 0-2.035-.352V9h-.832v.889c-1.621.223-2.488 1.24-2.488 2.375 0 2.032 2.373 2.342 3.148 2.703 1.061.474.863 1.458-.094 1.675-.83.188-1.893-.14-2.688-.45l-.378 1.37c.744.385 1.637.591 2.5.605V19h.832v-.877c1.381-.194 2.503-.956 2.5-2.387z"/></svg>